<svg version="1.0" xmlns="http://www.w3.org/2000/svg" width="200.000000pt" height="187.000000pt" viewBox="0 0 200.000000 187.000000" preserveAspectRatio="xMidYMid meet">
	<g transform="translate(0.000000,187.000000) scale(0.100000,-0.100000)" fill="#000000" stroke="none">
		<path d="M954 1769 l-99 -99 368 -368 369 -369 -366 -359 c-201 -197 -366
		-363 -366 -369 0 -10 125 -136 177 -179 l23 -19 462 458 c255 253 465 463 467
		468 4 10 -546 564 -790 797 l-145 139 -100 -100z"/>
		<path d="M104 1759 l-99 -99 368 -368 369 -369 -366 -359 c-201 -197 -366
		-363 -366 -369 0 -10 125 -136 177 -179 l23 -19 462 458 c255 253 465 463 467
		468 4 10 -546 564 -790 797 l-145 139 -100 -100z"/>
	</g>
</svg>
