<svg version="1.0" xmlns="http://www.w3.org/2000/svg" width="187px" height="187px" viewBox="0 0 200 187" preserveAspectRatio="xMidYMid meet">
	<g transform="translate(0,187) scale(0.1,-0.1)" fill="#000000" stroke="none">
		<path d="M1323 1410 c-255 -253 -463 -463 -463 -468 0 -5 210 -217 466 -472
		l467 -462 101 101 101 101 -368 368 -369 369 366 359 c201 197 366 364 366
		370 0 12 -186 194 -198 194 -4 -1 -215 -207 -469 -460z"/>
		<path d="M473 1400 c-255 -253 -463 -463 -463 -468 0 -5 210 -217 466 -472
		l467 -462 101 101 101 101 -368 368 -369 369 366 359 c201 197 366 364 366
		370 0 12 -186 194 -198 194 -4 -1 -215 -207 -469 -460z"/>
	</g>
</svg>
